HIERARCHY
ROOT root
{
	OFFSET 0.000000 0.000000 0.000000
	CHANNELS 6 Xposition Yposition Zposition Zrotation Yrotation Xrotation
	JOINT lhip
	{
		OFFSET 0.058581 -0.082280 -0.017664
		CHANNELS 3 Zrotation Yrotation Xrotation
		JOINT lknee
		{
			OFFSET 0.043451 -0.386469 0.008037
			CHANNELS 3 Zrotation Yrotation Xrotation
			JOINT lankle
			{
				OFFSET -0.014790 -0.426874 -0.037428
				CHANNELS 3 Zrotation Yrotation Xrotation
				JOINT ltoe
				{
					OFFSET 0.041054 -0.060286 0.122042
					CHANNELS 3 Zrotation Yrotation Xrotation
					End Site
					{
						OFFSET 0.000000 0.000000 0.000000
					}
				}
			}
		}
	}
	JOINT rhip
	{
		OFFSET -0.060310 -0.090513 -0.013543
		CHANNELS 3 Zrotation Yrotation Xrotation
		JOINT rknee
		{
			OFFSET -0.043257 -0.383688 -0.004843
			CHANNELS 3 Zrotation Yrotation Xrotation
			JOINT rankle
			{
				OFFSET 0.019056 -0.420046 -0.034562
				CHANNELS 3 Zrotation Yrotation Xrotation
				JOINT rtoe
				{
					OFFSET -0.034840 -0.062106 0.130323
					CHANNELS 3 Zrotation Yrotation Xrotation
					End Site
					{
						OFFSET 0.000000 0.000000 0.000000
					}
				}
			}
		}
	}
	JOINT lowerback
	{
		OFFSET 0.004439 0.124404 -0.038385
		CHANNELS 3 Zrotation Yrotation Xrotation
		JOINT upperback
		{
			OFFSET 0.004488 0.137956 0.026820
			CHANNELS 3 Zrotation Yrotation Xrotation
			JOINT chest
			{
				OFFSET -0.002265 0.056032 0.002855
				CHANNELS 3 Zrotation Yrotation Xrotation
				JOINT lowerneck
				{
					OFFSET -0.013390 0.211636 -0.033468
					CHANNELS 3 Zrotation Yrotation Xrotation
					JOINT upperneck
					{
						OFFSET 0.010113 0.088937 0.050410
						CHANNELS 3 Zrotation Yrotation Xrotation
						End Site
						{
							OFFSET 0.000000 0.000000 0.000000
						}
					}
				}
				JOINT lclavicle
				{
					OFFSET 0.071702 0.114000 -0.018898
					CHANNELS 3 Zrotation Yrotation Xrotation
					JOINT lshoulder
					{
						OFFSET 0.122921 0.045205 -0.019046
						CHANNELS 3 Zrotation Yrotation Xrotation
						JOINT lelbow
						{
							OFFSET 0.255332 -0.015649 -0.022946
							CHANNELS 3 Zrotation Yrotation Xrotation
							JOINT lwrist
							{
								OFFSET 0.265709 0.012698 -0.007375
								CHANNELS 3 Zrotation Yrotation Xrotation
								End Site
								{
									OFFSET 0.000000 0.000000 0.000000
								}
							}
						}
					}
				}
				JOINT rclavicle
				{
					OFFSET -0.082954 0.112472 -0.023707
					CHANNELS 3 Zrotation Yrotation Xrotation
					JOINT rshoulder
					{
						OFFSET -0.113228 0.046853 -0.008472
						CHANNELS 3 Zrotation Yrotation Xrotation
						JOINT relbow
						{
							OFFSET -0.260127 -0.014369 -0.031269
							CHANNELS 3 Zrotation Yrotation Xrotation
							JOINT rwrist
							{
								OFFSET -0.269108 0.006794 -0.006027
								CHANNELS 3 Zrotation Yrotation Xrotation
								End Site
								{
									OFFSET 0.000000 0.000000 0.000000
								}
							}
						}
					}
				}
			}
		}
	}
}
MOTION
Frames: 17
Frame Time: 0.033333
-0.794107 0.208555 0.973246 86.363132 3.558464 111.928542 -3.568884 -2.272998 -25.232276 -7.653595 33.421246 -14.846340 16.886229 30.592206 -13.272495 0.000000 -0.000000 0.000000 15.223135 3.868705 -5.607236 -2.822694 -5.200262 15.016533 5.234624 -16.074899 29.857593 0.000000 -0.000000 0.000000 -9.367131 4.634882 -4.844101 3.250411 1.839030 -5.884791 3.054759 0.210165 -0.437498 3.070531 -9.156002 25.124282 10.523860 5.273298 5.902373 -11.458137 17.858769 4.330099 -52.221738 -7.742356 13.605522 -7.739120 -42.689251 9.755843 -17.328743 -10.321006 -31.311308 10.728871 -14.868962 -1.837122 63.106945 2.319066 25.114450 8.029993 -2.492246 3.379522 26.941713 -1.538699 -19.594379 
-0.789868 0.208807 0.973106 86.445533 3.409204 112.139352 -3.682702 -2.258815 -25.235918 -7.828083 33.744405 -14.660651 17.069323 30.622137 -14.003089 0.000000 -0.000000 0.000000 15.212881 3.506249 -5.193813 -2.879627 -4.472247 14.280266 4.858112 -15.750116 30.125605 0.000000 -0.000000 0.000000 -8.837790 4.540073 -3.672307 2.951808 1.332930 -7.755851 3.395126 -0.495629 -0.065817 2.122901 -9.031600 25.403470 10.419616 6.213311 5.524033 -11.195370 16.462266 5.975762 -51.481133 -6.284828 11.612433 -9.781633 -43.131286 12.892916 -24.037550 -11.112494 -30.262290 10.371759 -13.708520 -0.974154 62.390377 2.373952 24.011888 7.908095 -2.148537 6.743779 32.451839 -1.863619 -17.331445 
-0.786471 0.209623 0.972959 86.022909 3.378886 112.577995 -3.624232 -2.292981 -25.556129 -8.057306 34.492625 -14.654114 16.759023 30.085676 -14.183574 0.000000 -0.000000 0.000000 15.174778 4.099256 -5.270464 -3.270086 -4.842516 13.936182 4.708626 -15.888117 30.595649 0.000000 -0.000000 0.000000 -8.630662 4.660897 -3.807757 3.136979 1.316845 -7.170495 3.487146 -0.560193 -0.816975 1.846107 -9.067569 25.071314 10.151081 6.516770 5.117760 -11.467810 15.741023 6.216559 -50.573079 -5.547172 11.780762 -12.047465 -42.520289 16.147775 -29.691201 -10.587356 -26.855194 10.026526 -13.550942 -1.400918 61.918078 1.574805 24.440361 7.896873 -1.011261 9.305396 37.764764 -2.407831 -16.057474 
-0.780728 0.210485 0.972441 86.025207 3.100378 113.101138 -4.263599 -1.894824 -25.750240 -8.061376 34.485032 -14.600265 17.239912 30.019453 -14.767236 0.000000 -0.000000 0.000000 15.161143 4.040859 -5.332167 -3.569299 -4.775398 13.369980 3.214432 -16.810461 33.368236 0.000000 -0.000000 0.000000 -8.370472 4.394443 -3.803729 3.365059 0.982876 -7.690206 3.565001 -0.764659 -0.901651 1.324990 -9.156107 24.856085 9.767364 7.335728 5.387447 -11.306193 14.912243 7.081092 -50.295116 -4.552372 12.177791 -14.057305 -41.101871 21.125446 -32.631457 -10.821173 -22.399201 9.617108 -13.321508 -1.321653 61.387600 1.012168 24.606706 8.065368 0.062508 12.547996 42.216794 -2.932813 -15.011284 
-0.776985 0.211249 0.972181 85.900826 2.803707 113.279394 -4.875610 -1.601236 -25.510340 -8.224257 33.981391 -15.050923 16.919513 29.460102 -14.392049 0.000000 -0.000000 0.000000 14.896898 3.708368 -5.423135 -3.750632 -5.241641 13.508219 3.135371 -17.362557 32.975844 0.000000 -0.000000 0.000000 -8.247431 4.316488 -3.579324 3.364110 0.924260 -7.918261 3.582343 -1.010119 -1.078142 1.091786 -9.113057 24.722525 9.636255 7.564129 5.344955 -11.327781 14.902727 7.074231 -50.189755 -3.887443 12.341902 -15.326448 -40.029282 24.223800 -34.805188 -9.464618 -19.906464 9.595338 -13.344035 -1.412856 60.892177 0.626558 24.541857 8.275886 0.820705 14.639282 44.580886 -4.038290 -14.057574 
-0.773572 0.211886 0.972081 85.850489 2.546076 113.382320 -5.384932 -1.263289 -25.421170 -8.232113 33.967541 -14.924916 16.561649 29.143922 -14.881762 0.000000 -0.000000 0.000000 14.765885 3.272635 -5.767206 -4.326362 -7.124446 14.133921 3.456842 -18.063217 31.433076 0.000000 -0.000000 0.000000 -7.923331 4.167905 -2.460382 3.275061 0.714847 -9.079512 3.676198 -1.083220 -1.174706 1.135031 -8.927625 24.645355 9.426250 7.593734 5.162401 -11.258058 14.626919 7.155641 -50.320563 -2.937182 12.309340 -16.284387 -38.627774 27.618525 -37.209023 -8.919359 -17.434693 9.395305 -12.985305 -1.356104 60.635492 0.028541 24.441664 8.725411 1.428616 17.057472 45.624182 -4.421878 -13.227846 
-0.770371 0.213087 0.971901 85.953594 2.083632 113.359315 -5.976811 -1.724553 -25.065526 -8.065589 33.850125 -15.196712 16.726671 29.413819 -14.713317 0.000000 -0.000000 0.000000 14.307441 2.648548 -6.064834 -5.053302 -9.881880 15.185780 3.094988 -19.313653 32.676724 0.000000 -0.000000 0.000000 -7.803372 4.043166 -1.674728 3.254594 0.625840 -9.625083 3.810108 -1.195434 -1.231517 0.960534 -9.210904 24.339473 9.137064 7.868065 4.992599 -11.054275 14.489709 7.220356 -50.678029 -2.593369 12.864917 -17.429068 -37.164040 31.043936 -38.674711 -7.670867 -14.653058 9.079724 -13.053191 -1.454395 60.506796 -0.379809 24.511103 9.145256 1.668280 18.153255 47.099739 -5.085966 -12.931244 
-0.768594 0.214343 0.971073 85.875142 1.631458 113.414495 -6.448871 -2.077704 -25.047770 -7.990316 34.075683 -15.100488 16.515311 29.466109 -15.013725 0.000000 -0.000000 0.000000 13.497384 1.892377 -6.915999 -5.603491 -12.896975 17.604318 4.291886 -19.816743 29.892347 0.000000 -0.000000 0.000000 -7.802650 4.187988 -1.449856 3.330777 0.514304 -9.432345 3.776638 -1.351707 -1.141842 1.563730 -8.831719 23.446977 8.780537 7.070283 5.360598 -10.893749 14.015549 7.163818 -51.248361 -2.204225 13.359495 -17.895518 -36.311055 33.170143 -40.292121 -7.407424 -13.135014 9.089360 -12.780646 -1.763500 60.334874 -0.843948 24.387564 9.552834 2.326625 19.072953 48.517388 -4.086553 -13.386958 
-0.765406 0.215274 0.971041 85.874166 1.264094 113.155260 -7.071625 -1.705973 -24.396984 -8.237705 33.539390 -15.351910 16.284998 29.451047 -15.267435 0.000000 -0.000000 0.000000 12.902255 1.485231 -7.105023 -5.608352 -14.318047 19.540733 4.978867 -19.859661 28.242680 0.000000 -0.000000 0.000000 -7.566628 4.186857 -0.484347 3.198695 0.414046 -10.149458 3.845433 -1.487152 -1.027198 1.532287 -8.620601 23.613321 8.579161 6.949062 5.247002 -11.189901 13.562505 7.066105 -51.481434 -1.115711 13.463460 -18.117630 -35.771588 34.172628 -41.413209 -6.976147 -12.067464 9.212977 -12.338697 -1.809135 60.085443 -1.418515 23.766299 10.045114 2.436467 19.596980 49.450640 -4.263008 -13.088441 
-0.763270 0.217237 0.971080 86.434262 1.056337 113.251890 -7.644581 -1.243407 -24.502897 -8.094156 33.268266 -14.924589 15.847808 28.650371 -15.855674 0.000000 -0.000000 0.000000 12.455804 1.149189 -8.081906 -5.216988 -15.488190 21.958546 7.045130 -19.483854 25.018944 0.000000 -0.000000 0.000000 -7.033715 3.973826 -0.570528 3.494863 0.261966 -9.590106 3.776359 -1.466757 -1.240662 1.703680 -8.710027 23.476716 7.978110 6.388164 5.190099 -11.124464 13.285257 7.144799 -52.735443 -0.807556 14.037374 -17.523884 -35.003765 34.041526 -41.187680 -7.131702 -11.398533 9.272343 -12.229376 -1.775769 59.754461 -1.551752 23.361651 10.547706 2.483610 19.402752 50.019925 -4.352235 -12.903820 
-0.761812 0.218441 0.970962 86.861615 0.790547 113.268029 -7.841824 -1.641168 -24.304696 -8.191631 33.225951 -15.122951 15.637741 28.544008 -15.944054 0.000000 -0.000000 0.000000 12.050356 1.433621 -8.359895 -4.719911 -15.733099 22.762654 8.339095 -18.802739 23.542754 0.000000 -0.000000 0.000000 -6.879259 3.892147 -0.760083 3.683370 0.298347 -9.210655 3.712254 -1.516882 -1.396562 1.957634 -8.656774 23.482451 7.395634 6.249503 5.306167 -11.160122 13.594215 7.250926 -53.445403 -0.982042 14.215735 -16.767489 -34.795502 33.306110 -41.136842 -7.192760 -11.763262 9.427206 -12.748465 -1.854501 59.547574 -1.461107 23.481574 10.827301 2.511335 19.915616 49.835719 -4.016474 -12.857974 
-0.760541 0.219024 0.971540 87.455639 0.821142 112.760768 -8.037068 -1.240396 -23.618335 -8.096584 32.345932 -15.021382 15.248868 28.443747 -16.124447 0.000000 -0.000000 0.000000 12.175061 1.228032 -7.923704 -3.777249 -14.348216 22.602730 10.302189 -17.151912 21.904243 0.000000 -0.000000 0.000000 -6.340346 3.669702 0.388523 3.779025 0.468267 -9.727708 3.819299 -1.128559 -1.471826 1.799428 -9.211016 23.861740 7.337023 6.196859 4.847196 -11.197235 14.431495 6.600544 -54.007501 -1.164086 14.561774 -16.843843 -34.477202 32.511601 -39.361036 -6.930497 -11.993235 9.678580 -12.995142 -2.109875 59.268607 -1.704912 23.434542 11.270210 2.304101 18.864535 48.370137 -4.377649 -11.311432 
-0.759429 0.221124 0.971400 87.953033 0.963258 112.195756 -7.948053 -1.217995 -22.996756 -7.912980 31.689030 -14.882029 15.328828 28.623476 -16.004480 0.000000 -0.000000 0.000000 12.325975 1.220760 -7.220364 -3.631087 -13.820922 21.766705 11.030370 -17.244938 23.994283 0.000000 -0.000000 0.000000 -6.583522 3.820910 0.429368 4.442823 0.770388 -9.216202 4.482529 -0.619670 -1.265167 2.046235 -9.951309 24.011048 6.825972 5.507718 4.610478 -11.078760 14.577855 6.217801 -55.961052 -1.911265 14.731368 -16.120433 -33.776498 32.445244 -38.194606 -5.506320 -9.587784 9.827635 -13.171329 -2.545856 58.779115 -2.068498 23.301022 11.225915 2.530523 17.370460 47.345461 -5.016343 -10.926236 
-0.759549 0.220355 0.970424 88.150793 0.789421 112.682588 -8.012883 -1.277423 -23.676588 -7.899494 31.695375 -14.493188 15.482669 28.446731 -16.069882 0.000000 -0.000000 0.000000 12.196439 1.178362 -7.894107 -3.386823 -13.010284 21.817339 9.986052 -17.404169 26.661406 0.000000 -0.000000 0.000000 -6.101842 3.908920 0.077448 4.099095 0.654983 -9.160951 4.148402 -0.842467 -1.524042 1.249336 -10.142041 23.858657 7.380955 6.329166 4.803060 -11.733828 14.739355 6.022575 -54.673409 -1.120781 14.661355 -16.635241 -35.328471 33.608001 -37.450605 -6.425896 -10.237030 9.713393 -13.045105 -2.267235 59.293088 -2.017898 23.105102 11.038854 2.472438 17.906735 47.430222 -4.171246 -11.569959 
-0.759299 0.221175 0.970261 88.612008 0.798523 113.033934 -7.796704 -1.508918 -24.108263 -8.096154 31.653395 -14.205025 15.859987 28.299470 -16.141372 0.000000 -0.000000 0.000000 12.211836 1.134265 -8.517937 -2.941480 -11.356018 21.762402 9.875842 -17.442627 29.766527 0.000000 -0.000000 0.000000 -6.032766 4.029944 -0.093187 4.160633 1.076297 -10.156232 4.306972 -0.938152 -1.114410 1.262788 -10.985154 24.117651 7.152906 6.526268 4.956367 -11.907141 15.639948 5.793700 -55.058709 -1.354924 14.685315 -16.754663 -36.093350 35.497612 -34.696945 -5.840091 -8.044346 9.953658 -13.690551 -2.336477 59.039888 -1.723741 23.043994 10.948513 1.958217 18.306095 45.721037 -4.066609 -10.496669 
-0.759061 0.221173 0.970107 88.627587 0.770897 113.023574 -7.805526 -1.528353 -24.094396 -8.116969 31.679212 -14.194832 15.859630 28.263601 -16.183556 0.000000 -0.000000 0.000000 12.150551 1.149688 -8.494344 -2.941256 -11.387470 21.760753 9.915570 -17.387341 29.839239 0.000000 -0.000000 0.000000 -6.054444 4.058803 -0.195661 4.174608 1.089312 -10.053458 4.315597 -0.979780 -1.160170 1.281638 -10.997119 24.124783 7.087344 6.554494 4.943059 -11.987563 15.603183 5.897955 -55.101986 -1.308797 14.657317 -16.571089 -36.295756 35.427022 -34.447500 -5.812332 -7.971286 10.015172 -13.620701 -2.262905 59.017307 -1.608930 23.034952 10.897289 1.915257 18.270804 45.490931 -4.291603 -10.350322 
-0.757386 0.221589 0.970476 89.314106 0.668365 112.560037 -7.680292 -1.995768 -23.431200 -8.239545 31.391292 -14.209673 15.868545 28.343227 -16.255267 0.000000 -0.000000 0.000000 12.018917 1.249564 -7.867328 -2.553943 -11.629188 21.244111 9.891775 -18.034836 31.185326 0.000000 -0.000000 0.000000 -6.404849 4.397337 -1.324998 4.713199 1.111217 -8.104569 4.514535 -0.915723 -1.681003 1.541099 -11.539038 24.110356 6.865395 6.289289 4.995099 -12.221224 15.349662 6.104434 -56.046161 -1.814432 14.986526 -16.083390 -37.443283 35.512325 -29.663135 -6.346115 -6.068277 10.195791 -13.336745 -2.467778 59.042760 -1.329263 23.223717 10.247417 1.483279 17.777399 42.140021 -5.373909 -7.868752 
